<?xml version="1.0" ?><svg height="64" viewBox="0 0 64 64" width="64" xmlns="http://www.w3.org/2000/svg"><defs><style>.cls-1{fill:none;stroke:#0067F6;stroke-linejoin:round;stroke-width:2px;}</style></defs><title/><g data-name="15-Gameplay" id="_15-Gameplay"><rect class="cls-1" height="62" rx="1" ry="1" width="44" x="10" y="1"/><path class="cls-1" d="M15,6V32H46a3,3,0,0,0,3-3V6Z"/><line class="cls-1" x1="15" x2="49" y1="27" y2="27"/><polyline class="cls-1" points="23 10 19 10 19 14"/><polygon class="cls-1" points="29 44 24 44 24 39 20 39 20 44 15 44 15 48 20 48 20 53 24 53 24 48 29 48 29 44"/><circle class="cls-1" cx="46" cy="43" r="3"/><circle class="cls-1" cx="39" cy="50" r="3"/></g></svg>
