<?xml version="1.0" encoding="utf-8"?>
<svg id="outline" viewBox="0 0 340 340" xmlns="http://www.w3.org/2000/svg">
  <defs/>
  <title/>
  <path d="M 329 188.977 C 329.555 176.406 329.466 163.814 328.734 151.252 C 328.514 146.152 328.287 140.873 328.153 135.284 C 328.085 132.62 325.158 131.029 322.885 132.42 C 321.833 133.064 321.204 134.218 321.231 135.45 C 321.367 141.105 321.596 146.415 321.817 151.55 C 322.308 162.929 322.773 173.707 322.179 186.72 L 305.49 196.153 C 303.261 197.412 303.123 200.571 305.234 202.02 L 316.361 209.661 C 319.942 212.119 322.082 216.184 322.081 220.528 L 322.081 307.856 L 144.31 307.856 C 141.239 307.814 138.32 306.512 136.236 304.256 C 130.892 298.581 124.35 295.582 117.319 295.582 C 109.87 295.398 102.725 298.54 97.825 304.154 C 95.688 306.539 92.627 307.888 89.425 307.854 L 15.476 307.854 L 15.476 204.554 C 15.409 199.55 16.397 194.588 18.376 189.991 C 22.922 179.765 20.43 168.755 15.476 162.52 L 15.476 118.765 C 15.488 114.433 17.509 110.351 20.946 107.714 L 75.695 65.959 C 77.814 64.342 77.389 61.038 74.929 60.011 C 73.788 59.534 72.479 59.703 71.495 60.453 L 16.745 102.209 C 11.595 106.159 8.568 112.274 8.55 118.765 L 8.55 163.8 C 8.55 164.673 8.88 165.515 9.474 166.155 C 12.713 169.645 16.074 178.125 12.043 187.182 C 9.67 192.664 8.48 198.584 8.55 204.557 L 8.55 311.318 C 8.55 313.23 10.099 314.779 12.011 314.78 L 89.422 314.78 C 94.621 314.814 99.582 312.603 103.033 308.714 C 106.634 304.621 111.87 302.345 117.319 302.505 C 122.467 302.505 127.136 304.691 131.196 309.005 C 134.59 312.648 139.331 314.737 144.31 314.782 L 325.545 314.782 C 327.457 314.781 329.006 313.232 329.006 311.32 L 329.006 220.53 C 329.007 213.905 325.744 207.706 320.283 203.956 L 313.726 199.456 L 327.249 191.814 C 328.279 191.23 328.94 190.16 329 188.977 Z" style="fill: rgb(0, 103, 245);"/>
  <path d="M 181.114 54.181 C 181.114 52.269 179.564 50.719 177.652 50.719 L 102.969 50.719 C 92.27 50.731 83.6 59.401 83.59 70.1 L 83.59 102.359 C 83.585 106.947 79.868 110.664 75.28 110.67 L 33.769 110.67 C 31.104 110.625 29.39 113.481 30.683 115.811 C 31.304 116.93 32.49 117.615 33.769 117.593 L 75.28 117.593 C 83.69 117.584 90.505 110.769 90.514 102.359 L 90.514 70.1 C 90.522 63.225 96.094 57.653 102.969 57.646 L 177.652 57.646 C 179.565 57.646 181.116 56.094 181.114 54.181 Z" style="fill: rgb(0, 103, 245);"/>
  <path d="M 161.978 119.152 C 161.549 117.291 159.695 116.128 157.833 116.552 C 139.433 120.752 123.84 128.929 111.49 140.867 C 104.135 147.813 95.586 153.372 86.254 157.278 C 74.363 162.419 60.088 175.553 59.591 208.912 C 59.512 210.754 58.651 237.719 74.439 255.048 C 82.339 263.72 92.991 268.422 106.003 269.016 C 106.232 269.033 107.414 269.111 109.291 269.111 C 117.616 269.111 139.591 267.567 152.579 252.242 C 166.069 236.325 180.221 225.349 205.438 223.518 C 222.713 222.341 237.977 211.85 245.266 196.144 C 245.393 195.866 245.519 195.587 245.645 195.303 C 248.257 189.338 248.418 182.585 246.093 176.503 C 245.261 174.323 244.861 172.002 244.917 169.67 C 245.138 159.251 242.331 148.991 236.836 140.136 C 235.441 137.865 232.111 137.956 230.842 140.299 C 230.235 141.421 230.293 142.786 230.994 143.851 C 235.76 151.555 238.191 160.475 237.994 169.532 C 237.919 172.761 238.474 175.973 239.629 178.989 C 241.301 183.362 241.187 188.217 239.311 192.507 C 239.198 192.761 239.085 193.012 238.971 193.261 C 232.735 206.672 219.691 215.623 204.935 216.617 C 175.684 218.74 159.946 232.845 147.296 247.771 C 133.677 263.842 106.772 262.138 106.411 262.109 C 89.011 261.309 77.035 252.359 70.801 235.494 C 67.83 227.045 66.376 218.137 66.508 209.182 C 66.508 209.143 66.508 209.106 66.508 209.068 C 66.935 179.368 78.972 167.968 88.995 163.637 C 99.092 159.401 108.341 153.375 116.295 145.849 C 127.723 134.802 142.214 127.217 159.366 123.306 C 161.237 122.884 162.408 121.021 161.978 119.152 Z" style="fill: rgb(0, 103, 245);"/>
  <path d="M 130.338 218.3 C 130.338 217.382 129.973 216.502 129.324 215.853 L 120.072 206.601 C 118.72 205.246 116.524 205.246 115.172 206.601 L 109.372 212.401 L 103.572 206.601 C 102.199 205.302 100.05 205.302 98.677 206.601 L 89.425 215.853 C 88.07 217.205 88.07 219.401 89.425 220.753 L 95.225 226.553 L 89.425 232.353 C 88.07 233.705 88.07 235.901 89.425 237.253 L 98.677 246.504 C 100.029 247.855 102.22 247.855 103.572 246.504 L 109.372 240.704 L 115.172 246.504 C 116.525 247.858 118.719 247.858 120.072 246.504 L 129.324 237.253 C 130.679 235.901 130.679 233.705 129.324 232.353 L 123.524 226.553 L 129.324 220.753 C 129.974 220.102 130.339 219.22 130.338 218.3 Z M 116.177 229 L 121.977 234.8 L 117.622 239.155 L 111.822 233.355 C 110.47 232 108.274 232 106.922 233.355 L 101.122 239.155 L 96.767 234.8 L 102.567 229 C 103.922 227.648 103.922 225.452 102.567 224.1 L 96.767 218.3 L 101.122 213.944 L 106.922 219.744 C 108.275 221.098 110.469 221.098 111.822 219.744 L 117.622 213.944 L 121.977 218.3 L 116.177 224.1 C 114.822 225.452 114.822 227.648 116.177 229 Z" style="fill: rgb(0, 103, 245);"/>
  <path d="M 244.724 274.64 C 247.126 271.948 248.276 268.365 247.888 264.778 C 247.495 261.131 245.577 257.821 242.608 255.666 L 242.422 255.531 C 237.433 251.849 230.923 250.931 225.11 253.089 C 219.243 255.298 213.907 258.718 209.45 263.126 C 207.069 265.47 205.998 268.837 206.587 272.126 C 207.162 275.376 209.304 278.133 212.311 279.494 C 216.758 281.63 221.611 282.789 226.544 282.894 C 233.514 282.908 240.147 279.897 244.724 274.64 Z M 213.402 270.907 C 213.207 269.867 213.545 268.799 214.302 268.06 C 218.071 264.331 222.584 261.438 227.545 259.569 C 231.211 258.231 235.306 258.84 238.424 261.187 L 238.524 261.263 C 239.913 262.268 240.811 263.814 240.995 265.518 C 241.185 267.155 240.662 268.794 239.559 270.018 C 233.559 276.718 225.345 277.781 215.151 273.18 C 214.226 272.761 213.571 271.908 213.404 270.907 L 213.402 270.907 Z" style="fill: rgb(0, 103, 245);"/>
  <g transform="matrix(1, 0, 0, 1, -23, -15)">
    <path d="M132.541,190.266a3.451,3.451,0,0,0,1.84-.532,18.887,18.887,0,0,1,6.171-2.451,3.462,3.462,0,1,0-1.4-6.78,25.912,25.912,0,0,0-8.454,3.37,3.462,3.462,0,0,0,1.846,6.393Z" style="fill: rgb(0, 103, 245);"/>
    <path d="M157.044,193.121a3.462,3.462,0,1,0,5.807-3.771,18.809,18.809,0,0,0-3.649-4.241,21.659,21.659,0,0,0-3.273-2.247,3.461,3.461,0,1,0-3.38,6.041,14.745,14.745,0,0,1,2.225,1.529A12.123,12.123,0,0,1,157.044,193.121Z" style="fill: rgb(0, 103, 245);"/>
    <path d="M125.076,195.281a3.462,3.462,0,0,0-4.185,2.541,29.565,29.565,0,0,0-.824,6.9,20.609,20.609,0,0,0,.1,2.171,3.454,3.454,0,0,0,3.433,3.062,3.541,3.541,0,0,0,.384-.02,3.468,3.468,0,0,0,3.063-3.814s-.055-.533-.055-1.4a22.516,22.516,0,0,1,.627-5.257A3.462,3.462,0,0,0,125.076,195.281Z" style="fill: rgb(0, 103, 245);"/>
  </g>
  <path d="M 157.05 209.055 C 155.187 208.818 153.398 208.18 151.805 207.186 C 149.541 205.781 146.604 207.354 146.519 210.017 C 146.48 211.241 147.091 212.395 148.125 213.051 C 150.572 214.579 153.321 215.558 156.182 215.923 L 157.008 216.023 C 157.141 216.039 157.274 216.047 157.408 216.047 C 160.073 216.037 161.728 213.146 160.387 210.843 C 159.84 209.903 158.882 209.275 157.802 209.147 L 157.05 209.055 Z" style="fill: rgb(0, 103, 245);"/>
  <path d="M 184.83 198 C 186.692 198.438 188.556 197.282 188.99 195.419 C 189.615 192.676 190.03 189.889 190.233 187.083 C 190.521 184.434 187.834 182.466 185.395 183.54 C 184.192 184.071 183.394 185.236 183.333 186.549 C 183.158 189.004 182.796 191.441 182.252 193.841 C 181.816 195.701 182.97 197.563 184.83 198 Z" style="fill: rgb(0, 103, 245);"/>
  <path d="M 176.467 205.03 C 174.889 206.499 173.013 207.609 170.967 208.286 C 168.435 209.116 167.751 212.377 169.736 214.155 C 170.681 215.001 172.015 215.263 173.21 214.836 C 176.18 213.838 178.904 212.22 181.2 210.088 C 183.147 208.268 182.393 205.023 179.843 204.247 C 178.66 203.887 177.375 204.185 176.471 205.03 L 176.467 205.03 Z" style="fill: rgb(0, 103, 245);"/>
  <path d="M 141.929 201.575 C 144.162 201.574 145.811 199.493 145.302 197.319 C 144.824 195.204 144.593 193.041 144.611 190.873 C 144.611 190.691 144.611 190.509 144.611 190.326 C 144.646 188.413 143.124 186.835 141.211 186.801 L 141.147 186.801 C 139.26 186.801 137.72 188.314 137.687 190.201 C 137.687 190.438 137.68 190.673 137.681 190.891 C 137.664 193.588 137.957 196.277 138.555 198.907 C 138.925 200.471 140.322 201.576 141.929 201.575 Z" style="fill: rgb(0, 103, 245);"/>
  <path d="M 326.853 87.931 C 331.546 88.009 334.564 83.126 332.288 79.142 C 331.194 77.231 329.106 76.059 326.853 76.098 L 313.321 76.098 C 311.62 66.806 306.657 58.375 299.275 52.236 C 295.699 49.287 290.174 51.205 289.335 55.687 C 288.95 57.736 289.703 59.829 291.316 61.2 C 295.992 65.096 299.319 70.298 300.837 76.098 L 277.711 76.098 L 277.711 28.283 L 280.466 31.207 C 283.634 34.568 289.361 33.338 290.775 28.995 C 291.432 26.979 290.931 24.776 289.461 23.216 L 276.112 9.057 C 273.621 6.66 269.608 6.66 267.119 9.057 L 253.772 23.216 C 250.638 26.607 252.46 32.019 257.05 32.959 C 259.14 33.388 261.307 32.722 262.764 31.207 L 265.519 28.284 L 265.519 42.699 C 254.994 44.167 245.429 49.435 238.732 57.456 C 235.77 60.988 237.861 66.31 242.492 67.031 C 244.643 67.366 246.812 66.563 248.188 64.923 C 252.575 59.679 258.7 56.073 265.519 54.724 L 265.519 76.092 L 216.377 76.092 C 211.684 76.168 208.839 81.147 211.252 85.055 C 212.336 86.806 214.272 87.892 216.377 87.926 L 229.503 87.926 C 230.68 98.263 235.847 107.784 243.963 114.571 C 247.565 117.49 253.071 115.529 253.875 111.04 C 254.238 109.023 253.498 106.966 251.921 105.605 C 246.505 101.062 242.932 94.795 241.841 87.926 L 265.519 87.926 L 265.519 135.642 C 265.519 140.198 270.6 143.046 274.663 140.766 C 276.549 139.711 277.711 137.756 277.711 135.642 L 277.711 124.101 C 288.238 122.605 297.806 117.33 304.523 109.321 C 307.531 105.823 305.511 100.478 300.886 99.698 C 298.682 99.326 296.446 100.155 295.061 101.858 C 290.661 107.103 284.534 110.714 277.711 112.083 L 277.711 87.931 L 326.853 87.931 Z" style="fill: rgb(0, 103, 245);"/>
  <g transform="matrix(1, 0, 0, 1, 63, -36)">
    <path d="M132.541,190.266a3.451,3.451,0,0,0,1.84-.532,18.887,18.887,0,0,1,6.171-2.451,3.462,3.462,0,1,0-1.4-6.78,25.912,25.912,0,0,0-8.454,3.37,3.462,3.462,0,0,0,1.846,6.393Z" style="fill: rgb(0, 103, 245);"/>
    <path d="M157.044,193.121a3.462,3.462,0,1,0,5.807-3.771,18.809,18.809,0,0,0-3.649-4.241,21.659,21.659,0,0,0-3.273-2.247,3.461,3.461,0,1,0-3.38,6.041,14.745,14.745,0,0,1,2.225,1.529A12.123,12.123,0,0,1,157.044,193.121Z" style="fill: rgb(0, 103, 245);"/>
    <path d="M125.076,195.281a3.462,3.462,0,0,0-4.185,2.541,29.565,29.565,0,0,0-.824,6.9,20.609,20.609,0,0,0,.1,2.171,3.454,3.454,0,0,0,3.433,3.062,3.541,3.541,0,0,0,.384-.02,3.468,3.468,0,0,0,3.063-3.814s-.055-.533-.055-1.4a22.516,22.516,0,0,1,.627-5.257A3.462,3.462,0,0,0,125.076,195.281Z" style="fill: rgb(0, 103, 245);"/>
  </g>
  <path d="M 159.467 141.03 C 157.889 142.499 156.013 143.609 153.967 144.286 C 151.435 145.116 150.751 148.377 152.736 150.155 C 153.681 151.001 155.015 151.263 156.21 150.836 C 159.18 149.838 161.904 148.22 164.2 146.088 C 166.147 144.268 165.393 141.023 162.843 140.247 C 161.66 139.887 160.375 140.185 159.471 141.03 L 159.467 141.03 Z" style="fill: rgb(0, 103, 245);"/>
  <path style="stroke: rgb(0, 0, 0); stroke-opacity: 0; fill: rgb(0, 102, 244);" d="M 157.242 117.215 C 155.813 119.432 156.291 122.868 158.822 123.184 C 161.259 123.488 166.071 122.08 168.752 122.169 C 181.293 122.586 194.009 124.088 206.05 127.683 C 214.464 130.194 225.734 136.337 231.729 143.123 C 232.615 144.126 237.088 143.21 236.64 140.984 C 235.089 133.287 225.73 129.349 221.909 126.79 C 209.902 118.749 189.867 115.882 175.378 114.549 C 172.192 114.256 159.064 114.63 156.801 117.383"/>
</svg>